<?xml version="1.0" standalone="no"?><!DOCTYPE svg PUBLIC "-//W3C//DTD SVG 1.1//EN" "http://www.w3.org/Graphics/SVG/1.1/DTD/svg11.dtd"><svg t="1644849088801" class="icon" viewBox="0 0 1024 1024" version="1.1" xmlns="http://www.w3.org/2000/svg" p-id="5837" width="64" height="64" xmlns:xlink="http://www.w3.org/1999/xlink"><defs><style type="text/css"></style></defs><path d="M628.897 931.942c-29.415 0-48.069-1.867-55.106-3.466-15.894-3.589-345-34.987-434.766-34.987-13.5 0-16.445 0.77-16.899 0.924-5.303 2.006-10.296 3.025-14.825 3.025-24.741 0-29.763-28.333-31.413-37.644l-0.034-0.191c-4.623-26.349-10.335-66.098-11.288-105.796-1.205-50.221 5.686-86.087 20.479-106.604 26.581-36.839 107.463-148.937 190.458-204.462 61.593-41.198 63.986-75.306 65.271-93.63 0.302-4.304 0.541-7.694 1.419-10.69 1.27-4.312 0.483-19.754-8.994-32.424-8.69-11.62-22.087-17.513-39.817-17.513-8.956 0-19.04 1.535-29.972 4.562-47.209 13.06-70.391 23.64-87.317 31.364-12.168 5.556-20.949 9.564-32.511 11.58-14.305 2.491-32.835 4.038-48.361 4.038-20.412 0-34.559-2.466-42.049-7.328-12.875-8.346-26.631-30.472-24.326-44.393 1.117-6.747 5.683-11.605 12.525-13.33 15.968-4.028 116.827-48.553 136.052-65.977 19.64-17.817 54.633-57.491 70.312-81.937 11.762-18.322 59.202-35.008 99.533-35.008 30.457 0 72.014 8.437 97.027 48.628 28.118 45.182 43.188 80.619 48.866 114.902 6.865 41.453-0.621 81.345-22.884 121.956-21.964 40.067-50.333 79.563-73.127 111.297-13.604 18.938-30.146 41.969-34.101 51.037 4.812 1.194 9.881 1.839 14.623 1.839 7.682 0 18.361-1.726 25.605-9.949 16.807-19.057 112.501-52.008 169.82-54.182 27.547-1.046 69.594-8.921 110.256-16.536 37.508-7.026 72.937-13.662 91.626-13.662 4.582 0 8.015 0.368 10.803 1.158a6.198 6.198 0 0 0 1.689 0.215c6.528 0 19.677-7.741 37.002-29.469 13.892-17.422 23.242-35.042 23.938-41.375 1.122-10.118 7.534-16.913 15.956-16.913 10.851 0 21.836 11.486 21.836 33.438 0 13.078-5.943 34.259-11.692 54.743-4.403 15.692-11.583 41.277-10.462 48.804 11.912-0.403 33.312-17.609 40.881-30.49 4.981-8.459 11.874-13.308 18.913-13.308 8.354 0 14.982 6.509 17.731 17.411 3.968 15.767-3.281 32.279-5.907 37.517-0.376 4.117-1.511 17.455-1.777 31.239-0.386 19.922 1.292 28.092 2.388 31.263 4.386-2.565 9.855-7.364 14.771-11.675 9.497-8.326 17.682-15.502 25.647-15.502 2.724 0 9.381 0.976 12.378 10.008 6.151 18.567 6.329 52.483 6.329 56.29l-0.127 1.318c-0.329 1.703-7.81 40.646-7.81 59.499 0 13.218-24.748 67.602-55.48 115.312-29.815 46.288-76.251 104.883-128.152 121.166-66.24 20.803-138.036 23.908-174.937 23.908z m-489.872-52.453c90.282 0 421.806 31.707 437.859 35.333 5.525 1.256 23.929 3.121 52.014 3.121 36.098 0 106.281-3.022 170.75-23.264 47.903-15.029 92.01-71.045 120.575-115.39 33.133-51.437 53.251-100.075 53.251-107.73 0-19.29 6.913-56.14 7.932-61.464-0.042-4.773-0.509-35.827-5.613-51.239l-0.059-0.17c-3.563 1.36-11.173 8.034-15.448 11.783-6.919 6.068-14.066 12.337-20.783 15.188-4.534 1.925-9.441 0.835-12.723-2.794-3.229-3.571-7.457-11.918-6.884-43.034 0.305-16.505 1.801-31.746 1.971-33.43l0.149-1.419 0.668-1.228c0.093-0.172 8.533-15.964 5.32-28.734-1.119-4.435-2.977-6.829-4.156-6.829-1.48 0-4.256 2.005-6.85 6.407-8.744 14.884-34.492 37.397-53.366 37.397-1.109 0-2.216-0.077-3.288-0.228-3.192-0.451-5.932-2.205-7.718-4.939-5.887-9.015-0.902-28.233 8.414-61.428 5.491-19.568 11.169-39.805 11.169-50.959 0-13.846-5.53-19.438-7.836-19.438-0.744 0-1.735 1.701-2.04 4.45-1.301 11.81-14.86 33.455-26.909 48.566-10.348 12.978-30.33 34.749-47.898 34.749-1.921 0-3.791-0.254-5.558-0.755-0.827-0.234-2.831-0.627-6.983-0.627-17.386 0-52.195 6.52-89.05 13.422-41.171 7.71-83.73 15.681-112.301 16.765-61.779 2.343-149.069 37.226-159.85 49.45-10.698 12.143-25.541 14.692-36.108 14.692-7.507 0-15.657-1.302-22.948-3.666-2.882-0.935-5.07-3.105-6.005-5.955-2.972-9.061 6.539-22.932 37.056-65.417 22.573-31.424 50.666-70.533 72.225-109.863 43.931-80.136 21.541-146.996-25.592-222.731-21.616-34.733-58.23-42.024-85.14-42.024-44.913 0-81.526 18.872-87.75 28.568-16.244 25.324-52.414 66.352-72.691 84.747-21.166 19.182-123.523 64.511-142.033 69.181-1.75 0.44-1.975 1.065-2.137 2.043-1.222 7.38 8.947 24.404 18.134 30.359 1.836 1.191 9.734 5.073 34.412 5.073 14.794 0 32.404-1.468 45.976-3.83 9.783-1.706 17.877-5.4 29.081-10.515 17.353-7.922 41.113-18.77 89.417-32.132 12.151-3.363 23.491-5.069 33.706-5.069 22.067 0 39.712 7.998 51.028 23.128 11.941 15.966 13.75 36.146 11.213 44.757-0.45 1.533-0.65 4.386-0.883 7.689-1.455 20.746-4.159 59.307-71.455 104.319C202.386 508.501 122.616 619.06 96.403 655.39c-13.033 18.075-19.042 51.181-17.858 98.395 1.021 40.74 7.395 82.271 11.103 103.401l0.035 0.206c4.091 23.079 11.566 26.044 17.62 26.044 2.833 0 6.16-0.716 9.89-2.127 2.382-0.899 6.84-1.82 21.832-1.82z" fill="" p-id="5838"></path></svg>